<svg width="154" height="150" viewBox="0 0 154 150" fill="none" xmlns="http://www.w3.org/2000/svg">
<path fill-rule="evenodd" clip-rule="evenodd" d="M79.1298 8.3919C77.3397 9.00395 75.8641 10.2989 75.0248 11.9943C74.1854 13.6898 74.0503 15.6483 74.649 17.4429L80.3867 34.5352C79.8608 35.8395 79.3349 36.1971 78.7722 36.3549C78.1148 36.5337 77.3995 36.46 76.1952 35.6449C75.4957 35.1663 74.6174 34.4353 73.5656 33.6201C73.3814 33.3954 73.1829 33.1829 72.9713 32.9837L40.2593 1.9547C38.8812 0.654971 37.0448 -0.0468357 35.1511 0.00242898C33.2573 0.0516937 31.46 0.84803 30.1512 2.21765C28.8515 3.59583 28.1497 5.43218 28.199 7.32591C28.2482 9.21965 29.0446 11.017 30.4142 12.3258L54.5643 35.2346C54.1575 35.7185 53.7158 36.2654 53.2389 36.8755L21.9522 12.0523C21.215 11.4654 20.3694 11.0295 19.4638 10.7695C18.5581 10.5095 17.61 10.4305 16.6738 10.537C15.7376 10.6434 14.8315 10.9333 14.0073 11.39C13.1831 11.8468 12.457 12.4614 11.8704 13.1988C10.6987 14.6864 10.1633 16.5773 10.3811 18.4583C10.5989 20.3394 11.5521 22.0579 13.0327 23.2385L45.2503 48.798C45.0189 49.2135 44.7875 49.629 44.5666 50.0444L14.2581 31.2377C12.6454 30.244 10.7051 29.9285 8.86066 30.36C7.01622 30.7916 5.41733 31.9352 4.41292 33.5412C3.41921 35.1539 3.10371 37.0942 3.53527 38.9386C3.96682 40.7831 5.11039 42.3819 6.71643 43.3863L38.6395 63.2029C38.487 63.6604 38.3503 64.0969 38.2346 64.5124L9.75096 53.221C7.99133 52.5349 6.03201 52.5709 4.29881 53.3213C2.56561 54.0717 1.1986 55.4758 0.494845 57.2285C-0.196255 58.9921 -0.162285 60.9574 0.589353 62.6961C1.34099 64.4349 2.74937 65.806 4.50758 66.5109L46.3968 83.1456C46.9498 83.3626 47.5274 83.511 48.1165 83.5874C51.0568 84.841 54.1106 85.8096 57.2359 86.4799C63.2682 87.8894 71.5566 89.2041 77.41 89.0411C83.2635 88.8781 86.6767 87.2267 89.8532 84.5919C93.1006 81.8011 95.8857 78.5138 98.1048 74.8519C100.004 71.8369 101.381 68.5225 102.175 65.0488C102.541 63.4584 102.66 61.8212 102.528 60.1946C103.025 58.7208 103.025 57.1245 102.528 55.6507L88.1755 12.9043C87.5677 11.1103 86.2746 9.62982 84.5787 8.78629C82.8827 7.94276 80.9219 7.80476 79.1245 8.40243L79.1298 8.3919Z" fill="#0A4FA4"/>
<path fill-rule="evenodd" clip-rule="evenodd" d="M70.4417 42.9498H147.01V85.6857C146.99 92.1772 144.402 98.3971 139.811 102.986C135.22 107.576 128.999 110.161 122.507 110.178H73.5604L49.079 134.685V64.3283C49.0956 58.6662 51.3512 53.2405 55.3534 49.2354C59.3556 45.2302 64.7796 42.9706 70.4417 42.9498Z" fill="white"/>
<path d="M70.4417 36.5967H153.363V85.6857C153.343 93.8622 150.086 101.698 144.303 107.479C138.521 113.259 130.684 116.514 122.507 116.531H76.1899L42.7259 150V64.3283C42.7425 56.9813 45.6674 49.9397 50.8611 44.7431C56.0547 39.5465 63.0947 36.6176 70.4417 36.5967ZM140.641 49.3029H70.4417C66.4614 49.3181 62.6484 50.906 59.8339 53.7205C57.0194 56.5351 55.4315 60.348 55.4162 64.3283V119.329L70.915 103.83H122.507C127.313 103.81 131.917 101.893 135.316 98.4941C138.714 95.0956 140.632 90.4919 140.651 85.6857V49.3029H140.641Z" fill="#0A4FA4"/>
<path fill-rule="evenodd" clip-rule="evenodd" d="M98.0417 71.4071C99.1068 71.4071 100.148 71.723 101.034 72.3147C101.919 72.9065 102.61 73.7476 103.017 74.7316C103.425 75.7157 103.531 76.7985 103.324 77.8432C103.116 78.8878 102.603 79.8474 101.85 80.6006C101.097 81.3537 100.137 81.8666 99.0923 82.0744C98.0477 82.2822 96.9648 82.1756 95.9808 81.768C94.9967 81.3603 94.1557 80.6701 93.5639 79.7845C92.9722 78.8989 92.6563 77.8577 92.6563 76.7925C92.6563 75.3642 93.2237 73.9944 94.2336 72.9845C95.2436 71.9745 96.6134 71.4071 98.0417 71.4071Z" fill="#0A4FA4"/>
<path fill-rule="evenodd" clip-rule="evenodd" d="M81.8171 71.4071C82.8823 71.4071 83.9235 71.723 84.8091 72.3147C85.6947 72.9065 86.385 73.7476 86.7926 74.7316C87.2002 75.7157 87.3068 76.7985 87.099 77.8432C86.8912 78.8878 86.3783 79.8474 85.6252 80.6006C84.872 81.3537 83.9124 81.8666 82.8678 82.0744C81.8231 82.2822 80.7403 82.1756 79.7562 81.768C78.7722 81.3603 77.9311 80.6701 77.3394 79.7845C76.7476 78.8989 76.4318 77.8577 76.4318 76.7925C76.4332 75.3647 77.001 73.9957 78.0106 72.986C79.0203 71.9764 80.3893 71.4085 81.8171 71.4071Z" fill="#0A4FA4"/>
<path fill-rule="evenodd" clip-rule="evenodd" d="M114.271 71.4071C113.206 71.4071 112.165 71.723 111.28 72.3147C110.394 72.9065 109.704 73.7476 109.296 74.7316C108.888 75.7157 108.782 76.7985 108.99 77.8432C109.197 78.8878 109.71 79.8474 110.463 80.6006C111.217 81.3537 112.176 81.8666 113.221 82.0744C114.266 82.2822 115.348 82.1756 116.332 81.768C117.316 81.3603 118.158 80.6701 118.749 79.7845C119.341 78.8989 119.657 77.8577 119.657 76.7925C119.655 75.3647 119.088 73.9957 118.078 72.986C117.068 71.9764 115.699 71.4085 114.271 71.4071Z" fill="#0A4FA4"/>
</svg>
